# xmcd
# 
# Track frame offsets:
#     150
#     21467
#     35692
#     72837
# 
# Disc length: 1202
# 
# Revision: 10
# Processed by: cddbd v1.5.2PL0 Copyright (c) Steve Scherf et al.
# Submitted via: fre:ac v1.0.31
# 
DISCID=3304b004
DTITLE=Simple Minds - The Singles
DYEAR=1991
DGENRE=Progressive Rock
TTITLE0=Let There Be Love (7'' Mix)
TTITLE1=Good Night
TTITLE2=Let There Be Love (Extended Mix)
TTITLE3=Alive And Kicking (Live)
EXTD=
EXTT0=
EXTT1=
EXTT2=
EXTT3=
PLAYORDER=
